<?xml version="1.0" standalone="no"?>
<!DOCTYPE svg PUBLIC "-//W3C//DTD SVG 20010904//EN"
 "http://www.w3.org/TR/2001/REC-SVG-20010904/DTD/svg10.dtd">
<svg version="1.0" xmlns="http://www.w3.org/2000/svg"
 width="640.000000pt" height="640.000000pt" viewBox="0 0 640.000000 640.000000"
 preserveAspectRatio="xMidYMid meet">

<g transform="translate(0.000000,640.000000) scale(0.100000,-0.100000)"
fill="#000000" stroke="none">
<path d="M0 3200 l0 -3200 341 0 c322 0 342 1 368 19 94 67 251 86 348 42 28
-12 59 -31 69 -42 16 -18 39 -19 595 -19 l578 0 7 35 c3 19 11 38 17 42 7 4 8
0 4 -11 -4 -10 -10 -29 -13 -42 l-6 -24 140 0 c131 0 140 1 145 20 7 26 23 26
37 0 10 -19 27 -20 1890 -20 l1880 0 0 3200 0 3200 -1420 0 -1420 0 -1 -52
c-2 -92 -17 -113 -18 -25 -1 69 -3 77 -21 77 -16 0 -20 -9 -26 -60 -8 -74 -20
-91 -57 -83 -25 5 -27 8 -21 36 5 26 4 29 -12 22 -40 -16 -52 -16 -87 -2 -25
11 -39 25 -48 51 -21 59 -45 48 -52 -24 -8 -74 -17 -92 -54 -109 -15 -7 -45
-22 -66 -32 -71 -37 -108 2 -115 123 l-5 78 -1488 0 -1489 0 0 -3200z m2893
3111 c-4 -15 -8 -19 -13 -10 -5 6 -3 18 3 24 16 17 17 14 10 -14z m-6 -78 c-3
-10 -5 -4 -5 12 0 17 2 24 5 18 2 -7 2 -21 0 -30z m2070 -80 c-59 -89 -107
-147 -107 -129 0 3 16 29 35 56 19 27 35 54 35 60 0 5 9 14 20 20 11 6 20 16
20 22 0 15 51 81 57 74 3 -3 -24 -49 -60 -103z m-2082 -100 c-10 -108 -25
-126 -19 -24 2 46 7 87 10 92 13 22 15 4 9 -68z m1975 -47 c0 -3 -4 -8 -10
-11 -5 -3 -10 -1 -10 4 0 6 5 11 10 11 6 0 10 -2 10 -4z m-926 -260 c-3 -9
-10 -16 -15 -16 -6 0 -5 9 1 21 13 24 24 20 14 -5z m-24 -31 c0 -2 -9 -9 -20
-15 -12 -6 -20 -7 -20 -1 0 5 8 12 18 14 9 3 18 5 20 6 1 0 2 -1 2 -4z m-70
-60 c16 -19 0 -19 -26 0 -16 12 -16 14 -3 15 9 0 22 -7 29 -15z m-997 -2 c-13
-2 -33 -2 -45 0 -13 2 -3 4 22 4 25 0 35 -2 23 -4z m727 -38 c0 -8 -9 -15 -20
-15 -11 0 -20 7 -20 15 0 8 9 15 20 15 11 0 20 -7 20 -15z m-147 -22 c20 -3
37 -9 37 -15 0 -6 -14 -8 -31 -6 -25 4 -33 1 -37 -14 -2 -10 -11 -18 -19 -18
-8 0 -11 5 -8 10 3 6 -2 10 -13 10 -24 0 -32 8 -25 26 5 14 29 16 96 7z m357
-158 c0 -8 -4 -15 -10 -15 -5 0 -10 7 -10 15 0 8 5 15 10 15 6 0 10 -7 10 -15z
m-313 -103 c10 -23 26 -45 36 -48 9 -3 17 -12 17 -21 0 -11 -7 -14 -26 -10
-14 2 -41 0 -60 -6 -26 -8 -38 -7 -47 2 -9 9 -7 13 8 17 30 8 45 64 28 105 -7
17 -13 36 -13 43 1 18 38 -35 57 -82z m236 18 c-10 -11 -29 -20 -43 -20 -24 1
-23 2 10 20 45 25 54 25 33 0z m-53 -40 c0 -5 3 -15 6 -23 5 -15 -20 -26 -78
-33 -22 -3 -28 0 -28 16 0 13 9 22 25 26 14 3 25 9 25 13 0 3 11 7 25 7 14 1
25 -2 25 -6z m1038 -694 c2 -3 2 -17 -2 -31 -4 -16 -13 -25 -26 -25 -24 0 -25
8 -5 31 15 15 14 17 -10 23 -14 4 -25 10 -25 15 0 9 57 -2 68 -13z m545 -313
c-7 -2 -19 -2 -25 0 -7 3 -2 5 12 5 14 0 19 -2 13 -5z m-2062 -165 l12 -22 10
24 11 25 4 -28 c2 -16 1 -31 -1 -34 -9 -8 -46 20 -50 39 -3 10 -12 18 -21 18
-18 0 -10 -29 13 -47 20 -15 2 -17 -33 -3 -19 7 -26 6 -26 -3 0 -8 -4 -7 -10
3 -8 13 -11 12 -23 -4 -18 -24 -38 -17 -66 23 -21 30 -21 30 -2 40 14 8 28 8
48 -1 15 -6 31 -11 36 -10 4 1 7 -2 7 -8 0 -5 5 -10 10 -10 6 0 10 6 9 13 -4
34 1 38 31 22 16 -8 35 -25 41 -37z m143 -9 c5 -5 4 -14 -3 -22 -6 -8 -9 -22
-5 -31 3 -9 2 -16 -4 -16 -5 0 -12 7 -16 15 -3 8 -14 15 -25 15 -11 0 -23 5
-26 10 -3 6 -1 10 6 10 8 0 9 3 0 13 -6 8 -8 17 -4 21 8 8 64 -2 77 -15z m154
-15 c15 -4 22 -14 22 -30 0 -13 5 -24 10 -24 6 0 10 -4 10 -10 0 -16 -50 -12
-66 5 -17 17 -44 20 -44 5 0 -5 -4 -10 -10 -10 -17 0 -11 16 16 44 29 28 29
28 62 20z m92 -20 c0 -8 5 -12 10 -9 6 4 10 -5 10 -21 0 -26 0 -27 20 -9 13
12 20 14 20 5 0 -10 3 -10 15 0 20 17 35 4 35 -30 0 -33 -15 -48 -24 -24 -4
11 -13 14 -27 11 -16 -4 -19 -2 -14 11 5 14 4 14 -13 -1 -23 -21 -32 -21 -32
-1 0 8 -4 12 -10 9 -6 -4 -10 10 -10 34 0 23 5 41 10 41 6 0 10 -7 10 -16z
m-392 -18 c15 -8 39 -19 55 -25 15 -6 27 -17 27 -25 0 -18 -33 -30 -61 -21
-22 7 -78 -11 -80 -26 -5 -27 -2 -34 21 -39 29 -7 39 -39 16 -52 -21 -12 -21
-44 0 -52 9 -3 35 -6 58 -6 41 0 66 -13 66 -35 0 -19 -48 -33 -95 -27 -35 3
-50 0 -65 -13 -26 -23 -47 -13 -55 26 l-8 33 -24 -29 c-13 -17 -23 -41 -21
-55 3 -39 -12 -72 -29 -66 -8 3 -20 6 -28 6 -7 0 -15 8 -19 18 -3 9 -17 35
-31 57 -14 22 -31 63 -40 91 -13 46 -13 56 0 88 17 40 46 63 91 72 36 7 55
-11 59 -58 1 -18 8 -34 15 -36 10 -4 11 6 5 44 -15 96 -8 124 32 124 15 0 35
5 43 10 21 13 37 12 68 -4z m582 -33 c40 -1 70 -16 70 -35 0 -5 -9 -18 -19
-29 -25 -27 -65 -22 -69 9 -2 12 1 22 7 22 6 0 11 -7 11 -15 0 -8 6 -15 14
-15 11 0 12 5 3 25 -14 30 -42 32 -59 5 -18 -29 -23 -25 -21 17 2 51 2 50 13
33 5 -9 26 -16 50 -17z m-442 -25 c7 -7 12 -24 12 -40 0 -30 19 -78 31 -78 4
0 7 10 7 23 -4 74 1 86 38 93 22 4 45 2 59 -6 26 -14 59 -75 76 -142 6 -27 17
-48 23 -48 20 0 35 59 29 111 l-6 49 45 0 c24 0 51 -6 60 -12 15 -12 14 -19
-9 -83 -28 -79 -41 -141 -43 -200 0 -22 -5 -47 -10 -55 -9 -13 -13 -11 -30 10
-10 14 -29 38 -42 54 -12 16 -31 46 -41 65 -45 85 -77 95 -77 24 0 -48 0 -48
-14 -21 -8 15 -16 37 -18 48 -6 38 -20 16 -22 -33 -1 -36 3 -47 14 -47 9 0 29
-12 46 -28 17 -15 41 -28 54 -29 13 -1 42 -15 64 -31 23 -16 60 -39 84 -52 26
-15 42 -31 42 -42 0 -11 4 -17 8 -14 4 2 12 2 18 -2 14 -10 50 -83 58 -117 3
-17 9 -41 12 -55 30 -132 28 -169 -11 -194 -31 -20 -73 -11 -85 18 -8 20 -9
19 -9 -5 -1 -25 -5 -27 -63 -33 -85 -9 -153 -28 -176 -49 -10 -9 -29 -17 -43
-16 -39 1 -124 34 -122 47 2 6 -4 9 -12 6 -18 -7 -48 11 -92 57 -63 64 -34
130 67 152 49 11 53 14 73 63 28 66 44 84 73 84 30 0 61 -35 99 -113 33 -68
55 -85 54 -40 0 15 -4 37 -8 48 -5 11 -4 25 1 33 7 8 7 12 0 12 -6 0 -23 22
-37 49 -29 52 -73 81 -126 81 -37 0 -87 -48 -96 -91 -8 -40 -38 -67 -88 -80
-47 -12 -94 -55 -96 -87 -1 -9 -2 -24 -3 -32 -6 -51 56 -132 130 -170 24 -13
43 -24 42 -25 -4 -3 -272 36 -276 40 -9 9 17 70 28 67 10 -2 10 1 -1 14 -10
13 -10 16 -1 10 11 -6 13 12 10 96 -2 76 -6 102 -15 100 -8 -1 -13 8 -13 24 0
14 4 23 10 19 6 -3 10 3 10 14 0 11 5 23 10 26 6 3 10 37 10 74 0 68 0 69 38
94 57 39 140 68 214 74 38 3 68 9 68 12 0 3 -9 12 -19 18 -20 13 -27 48 -37
191 -6 80 -1 95 24 70z m-968 -53 c26 -27 31 -39 26 -60 -4 -14 -10 -24 -15
-21 -9 6 -44 -33 -47 -52 -5 -30 -54 -121 -83 -153 -17 -18 -31 -39 -31 -46 0
-7 -7 -13 -15 -13 -8 0 -15 -4 -15 -10 0 -11 -30 -14 -30 -2 0 4 -3 18 -7 31
-4 17 -3 22 5 17 7 -4 12 -1 12 8 0 8 -4 18 -10 21 -13 8 -13 68 1 82 8 8 7
17 -2 34 -9 17 -9 24 0 27 6 2 11 10 11 17 0 8 10 17 22 21 24 7 57 42 58 61
0 6 8 18 18 25 9 7 17 25 17 39 -1 24 1 26 26 17 14 -5 41 -24 59 -43z m1586
-90 c42 -19 84 -68 84 -98 0 -25 -20 -20 -60 13 -35 31 -54 35 -110 24 -21 -5
-38 -17 -51 -37 -17 -29 -17 -32 -2 -59 16 -26 89 -65 101 -53 3 3 -5 16 -17
29 -19 20 -21 28 -12 45 7 12 14 21 17 21 17 0 64 -36 64 -49 0 -8 3 -11 7 -8
8 9 43 -22 43 -39 0 -7 -20 -37 -44 -67 -23 -29 -46 -60 -49 -68 -3 -9 -6 -6
-6 9 -1 12 -5 22 -11 22 -5 0 -10 7 -10 15 0 9 -30 29 -74 50 -65 30 -77 40
-96 80 -37 76 -17 159 45 186 31 14 136 4 181 -16z m-2060 -34 c-3 -4 -41 -10
-84 -13 -45 -3 -91 -11 -107 -21 -17 -8 -41 -18 -55 -21 -14 -3 -41 -19 -60
-36 -19 -16 -40 -30 -47 -30 -21 0 -63 -23 -57 -31 3 -5 -1 -9 -10 -9 -8 0
-16 -5 -18 -11 -2 -6 -19 -14 -38 -18 -18 -3 -36 -13 -38 -20 -4 -12 25 -13
177 -7 99 4 181 6 181 3 0 -2 -7 -22 -16 -42 -25 -61 -33 -171 -17 -234 7 -30
12 -56 9 -58 -2 -3 4 -13 15 -24 34 -34 35 -66 0 -134 -27 -52 -31 -69 -25
-100 l7 -37 -129 6 c-228 10 -263 16 -289 44 -13 14 -28 44 -34 66 -14 54 -21
64 -62 84 -23 12 -35 25 -37 42 -2 23 -1 24 11 8 8 -10 18 -18 23 -18 5 0 10
65 11 144 1 157 6 173 68 228 21 19 32 24 38 15 6 -8 7 -6 3 5 -7 22 38 70 58
62 8 -3 17 -1 21 5 3 6 -1 11 -9 11 -44 0 -28 52 27 84 43 25 200 53 337 59
36 2 84 4 108 5 24 1 41 -2 38 -7z m-156 -145 c0 -2 -9 -6 -20 -9 -11 -3 -20
-1 -20 4 0 5 9 9 20 9 11 0 20 -2 20 -4z m537 -198 c0 -18 3 -59 7 -90 10 -76
3 -79 -129 -66 -36 4 -36 21 -1 73 24 35 105 115 116 115 4 0 7 -15 7 -32z
m743 -18 c0 -5 -5 -10 -11 -10 -5 0 -7 5 -4 10 3 6 8 10 11 10 2 0 4 -4 4 -10z
m-70 -56 c0 -42 2 -45 17 -33 15 13 16 11 9 -16 -9 -35 -13 -41 -23 -31 -10
10 -20 126 -11 126 4 0 8 -21 8 -46z m67 -56 c-3 -8 -6 -5 -6 6 -1 11 2 17 5
13 3 -3 4 -12 1 -19z m943 -23 c0 -14 -4 -25 -10 -25 -5 0 -10 7 -10 15 0 8
-7 15 -15 15 -8 0 -15 5 -15 10 0 6 11 10 25 10 20 0 25 -5 25 -25z m-72 -7
c17 -17 15 -57 -3 -64 -23 -9 -18 -24 8 -25 l22 0 -23 -11 c-36 -18 -49 4 -23
39 13 17 19 36 15 46 -9 24 -24 21 -24 -5 0 -16 -3 -19 -11 -11 -14 14 -5 43
14 43 7 0 18 -5 25 -12z m-1721 -35 c-3 -16 -11 -54 -18 -85 -12 -53 -11 -63
8 -116 15 -41 18 -63 11 -73 -7 -11 -11 -11 -15 -1 -2 6 -9 10 -13 7 -5 -3 -6
10 -3 30 3 21 2 35 -5 35 -6 0 -9 16 -6 39 2 26 -2 43 -11 51 -20 17 -19 51 3
92 28 54 58 66 49 21z m1790 -25 c-3 -7 -5 -2 -5 12 0 14 2 19 5 13 2 -7 2
-19 0 -25z m-2017 -57 c0 -5 7 -11 16 -13 14 -3 70 -145 61 -155 -3 -2 -13 9
-23 26 -18 28 -22 31 -42 31 -5 0 -21 22 -36 49 -25 47 -25 50 -9 60 23 13 33
14 33 2z m374 -7 c23 -9 20 -24 -4 -24 -11 0 -20 7 -20 15 0 17 2 18 24 9z
m656 -39 c0 -15 -38 -55 -52 -55 -5 0 4 16 19 35 32 40 33 40 33 20z m-1140
-65 c0 -5 -2 -10 -4 -10 -3 0 -8 5 -11 10 -3 6 -1 10 4 10 6 0 11 -4 11 -10z
m3440 -116 c0 -17 -12 -18 -28 -2 -18 18 -15 27 8 21 11 -3 20 -12 20 -19z
m-1508 -22 c-19 -6 -44 6 -37 18 4 7 14 6 28 -2 14 -7 17 -13 9 -16z m18 -33
c-7 -11 -9 -32 -6 -45 4 -14 2 -24 -4 -24 -5 0 -10 5 -10 10 0 10 -31 -4 -62
-28 -10 -8 -18 -10 -22 -3 -4 5 14 27 39 47 25 21 45 44 45 51 0 7 7 13 15 13
13 0 14 -4 5 -21z m78 -12 c3 -14 -3 -17 -27 -15 -25 2 -31 7 -31 24 0 19 4
21 28 15 15 -4 28 -15 30 -24z m-1908 15 c0 -13 -23 -32 -39 -32 -11 0 -10 4
4 20 19 21 35 26 35 12z m1750 -6 c0 -3 -4 -8 -10 -11 -5 -3 -10 -1 -10 4 0 6
5 11 10 11 6 0 10 -2 10 -4z m-915 -28 c7 -8 2 -9 -15 -4 -14 3 -33 6 -43 6
-10 0 -15 5 -11 11 7 12 54 3 69 -13z m-918 6 c-3 -3 -12 -4 -19 -1 -8 3 -5 6
6 6 11 1 17 -2 13 -5z m-227 -19 c0 -8 -4 -15 -10 -15 -5 0 -10 7 -10 15 0 8
5 15 10 15 6 0 10 -7 10 -15z m1090 1 c0 -11 -19 -15 -25 -6 -3 5 1 10 9 10 9
0 16 -2 16 -4z m106 -7 c10 -17 -13 -36 -27 -22 -12 12 -4 33 11 33 5 0 12 -5
16 -11z m714 -34 c-7 -9 -15 -13 -18 -10 -3 2 1 11 8 20 7 9 15 13 18 10 3 -2
-1 -11 -8 -20z m-1780 5 c0 -5 -7 -10 -16 -10 -8 0 -12 5 -9 10 3 6 10 10 16
10 5 0 9 -4 9 -10z m2130 -20 c0 -24 -37 -47 -53 -31 -7 7 -5 16 8 31 23 25
45 26 45 0z m1350 -4 c0 -8 -4 -17 -9 -21 -12 -7 -24 12 -16 25 9 15 25 12 25
-4z m-3460 -20 c0 -8 -16 -24 -35 -36 -34 -21 -35 -23 -35 -89 0 -42 -5 -74
-14 -87 -14 -18 -15 -18 -21 -1 -4 10 -5 58 -3 108 4 94 13 111 49 102 10 -3
19 0 19 6 0 6 9 11 20 11 11 0 20 -6 20 -14z m1845 -18 c-11 -6 -25 -19 -32
-27 -8 -12 -15 -13 -23 -5 -13 13 3 29 35 37 35 8 41 7 20 -5z m1272 -64 c2
-7 -2 -18 -10 -25 -21 -22 -28 -49 -12 -49 7 0 17 -5 20 -11 8 -12 -26 -40
-38 -32 -5 3 -6 -13 -2 -36 4 -25 3 -41 -3 -41 -6 0 -12 4 -14 10 -1 5 -28 11
-58 14 -48 4 -56 7 -60 28 -3 12 -2 42 4 66 l9 42 54 0 c29 0 52 3 51 8 0 4 2
15 7 25 8 20 46 20 52 1z m-3114 -85 c-12 -21 -19 -26 -21 -15 -4 21 17 58 29
51 5 -4 2 -19 -8 -36z m1977 33 c0 -4 -14 -13 -30 -19 -34 -13 -31 3 4 17 27
11 26 11 26 2z m-288 -28 c-24 -17 -39 -14 -27 5 3 6 16 11 28 11 l21 0 -22
-16z m-147 -4 c-3 -5 -19 -10 -35 -10 -16 0 -32 5 -35 10 -4 6 10 10 35 10 25
0 39 -4 35 -10z m1943 -23 c2 -12 -3 -17 -17 -17 -15 0 -21 6 -21 21 0 25 33
22 38 -4z m-2858 -2 c0 -8 -4 -15 -10 -15 -5 0 -10 7 -10 15 0 8 5 15 10 15 6
0 10 -7 10 -15z m258 -9 c12 -5 22 -12 22 -17 0 -5 -10 -7 -22 -5 -113 23
-161 27 -169 14 -5 -7 -11 -9 -14 -6 -4 4 -2 13 5 20 13 14 132 10 178 -6z
m2003 -17 c-9 -23 -10 -22 -10 11 -1 23 2 31 9 24 7 -7 7 -19 1 -35z m-1698
-126 c-4 -240 -35 -636 -52 -657 -5 -6 -8 -18 -8 -26 0 -9 -3 -28 -7 -44 -5
-20 -3 -26 5 -21 8 5 9 1 4 -14 -4 -13 -2 -21 5 -21 6 0 8 -5 5 -10 -4 -6 -14
-1 -26 14 -17 21 -18 31 -9 97 6 41 14 124 20 184 5 61 14 153 19 205 15 144
30 345 31 413 0 15 3 27 8 27 4 0 6 -66 5 -147z m2131 101 c9 -8 16 -25 16
-37 0 -12 3 -33 6 -47 4 -16 -7 -5 -30 30 -20 30 -36 58 -36 63 0 13 28 7 44
-9z m106 -34 c33 -16 69 -30 80 -30 11 0 31 -7 43 -15 30 -20 115 -45 151 -45
24 0 27 2 16 15 -11 13 -8 15 16 15 47 0 57 -15 45 -71 -3 -18 -48 -17 -79 1
-18 11 -38 18 -43 14 -5 -3 -36 11 -70 31 -33 21 -63 34 -66 31 -4 -3 -1 -18
6 -32 6 -15 10 -28 9 -30 -2 -1 -34 15 -72 37 -72 41 -76 43 -76 32 0 -19 60
-75 114 -108 70 -42 84 -44 61 -9 -9 14 -15 27 -13 29 2 3 30 -14 62 -35 32
-22 62 -40 67 -40 4 0 3 14 -3 31 -6 16 -8 32 -6 34 2 3 28 -12 57 -32 43 -30
54 -34 61 -22 8 12 15 11 45 -5 47 -26 95 -72 95 -93 0 -14 -4 -12 -25 7 -21
20 -25 21 -25 7 0 -15 -6 -14 -40 8 -38 24 -40 24 -40 5 0 -26 -2 -25 -50 6
-41 28 -63 27 -40 -1 25 -31 1 -26 -50 10 -51 36 -75 41 -50 10 23 -27 5 -25
-40 5 -24 16 -46 28 -48 26 -7 -8 52 -86 83 -111 42 -31 47 -31 39 0 -9 34 6
31 46 -10 42 -43 51 -44 43 -2 l-6 32 42 -40 41 -39 0 37 0 37 40 -25 c48 -30
50 -31 50 -3 0 21 1 21 17 6 15 -16 15 -23 -4 -102 -12 -46 -31 -105 -42 -131
l-21 -47 -20 23 c-18 22 -19 22 -20 5 0 -19 -1 -18 -23 2 -27 26 -37 28 -37 7
0 -22 -10 -19 -42 12 l-28 27 0 -27 c0 -30 -11 -35 -30 -12 -32 39 -41 -3 -10
-50 l19 -29 9 23 9 24 22 -32 c20 -28 21 -36 11 -60 -11 -28 -5 -81 10 -81 4
0 10 7 14 15 10 26 26 16 26 -16 0 -39 -14 -65 -58 -111 -29 -31 -43 -38 -74
-38 -21 0 -38 5 -38 10 0 6 -7 10 -15 10 -26 0 -42 43 -55 150 -7 58 -18 138
-25 178 -7 39 -9 72 -4 72 4 0 24 -24 45 -52 l38 -53 -3 -111 c-2 -93 0 -113
15 -124 14 -13 19 -11 39 14 l23 28 10 -28 c9 -24 11 -25 11 -8 1 12 8 27 16
34 16 14 20 40 6 40 -5 0 -12 -10 -16 -22 -6 -20 -8 -21 -12 -5 -2 10 2 38 11
62 8 25 11 45 6 45 -5 0 -13 -12 -16 -26 -4 -14 -10 -22 -15 -17 -12 12 -40
137 -49 223 -16 150 -50 232 -149 357 -71 90 -107 155 -96 173 8 14 8 14 75
-20z m-3425 -55 c-4 -25 -10 -44 -12 -41 -3 3 -2 26 2 51 3 26 9 45 12 42 2
-3 1 -26 -2 -52z m333 16 c3 -21 3 -21 -17 -5 -11 10 -18 22 -15 26 10 15 29
3 32 -21z m2432 -41 c0 -11 -4 -20 -9 -20 -13 0 -32 26 -24 33 13 14 33 6 33
-13z m-23 -72 c-3 -8 -6 -5 -6 6 -1 11 2 17 5 13 3 -3 4 -12 1 -19z m648 12
c3 -5 1 -10 -4 -10 -6 0 -11 5 -11 10 0 6 2 10 4 10 3 0 8 -4 11 -10z m-815
-30 c0 -6 -33 -10 -79 -10 -44 0 -83 5 -86 10 -4 6 25 10 79 10 51 0 86 -4 86
-10z m927 -135 c55 -93 83 -166 81 -215 l-1 -35 -4 35 c-6 47 -75 193 -107
225 -25 25 -76 115 -76 132 1 15 59 -63 107 -142z m-3530 103 c-3 -7 -5 -2 -5
12 0 14 2 19 5 13 2 -7 2 -19 0 -25z m2416 25 c-7 -2 -19 -2 -25 0 -7 3 -2 5
12 5 14 0 19 -2 13 -5z m-2963 -21 c0 -4 -26 -43 -57 -85 -32 -42 -85 -115
-118 -163 -33 -48 -100 -137 -149 -198 -48 -61 -94 -125 -102 -143 -8 -17 -19
-35 -25 -39 -13 -8 -31 15 -22 29 3 5 -1 13 -8 18 -10 6 -7 9 11 9 25 0 44 22
79 92 8 15 18 25 24 21 6 -4 8 4 5 20 -4 21 0 27 19 31 12 4 23 12 23 19 0 7
17 31 38 53 22 21 68 82 103 134 35 52 71 101 79 108 13 12 13 13 0 6 -13 -7
-13 -5 -1 9 7 9 17 14 22 11 5 -3 9 -1 9 5 0 12 51 69 63 70 4 1 7 -3 7 -7z
m3330 -14 c0 -6 -7 -7 -16 -4 -9 3 -23 6 -32 7 -13 0 -13 2 3 8 23 9 45 4 45
-11z m-1446 -149 c0 -128 -10 -613 -13 -685 -1 -13 -16 -32 -41 -48 l-40 -26
0 427 0 428 37 32 c21 18 43 31 48 29 6 -2 10 -62 9 -157z m1433 129 c6 -1 14
-16 18 -35 6 -34 19 -43 28 -20 3 7 6 6 6 -5 1 -26 -20 -33 -36 -12 -8 10 -18
18 -23 17 -5 -2 -15 7 -21 20 -7 12 -19 28 -28 35 -14 11 -12 12 14 7 17 -3
35 -6 42 -7z m-2590 -70 c-3 -7 -5 -2 -5 12 0 14 2 19 5 13 2 -7 2 -19 0 -25z
m-248 -92 c-9 -8 -10 -7 -5 7 3 10 7 26 7 35 1 9 4 6 6 -7 3 -13 -1 -28 -8
-35z m38 12 c-3 -8 -6 -5 -6 6 -1 11 2 17 5 13 3 -3 4 -12 1 -19z m3577 -88
c14 -22 26 -43 26 -47 0 -4 -6 1 -13 12 -33 48 -49 75 -44 75 2 0 16 -18 31
-40z m-774 -10 c8 -15 6 -21 -10 -30 -22 -12 -28 -32 -7 -25 21 8 36 -9 46
-55 7 -32 7 -48 -2 -59 -7 -8 -13 -30 -13 -50 -1 -20 -5 -51 -10 -70 -6 -30
-5 -33 9 -28 21 8 22 -6 2 -23 -9 -7 -14 -19 -11 -26 3 -7 -4 -29 -15 -50 -10
-21 -19 -46 -19 -55 0 -9 -6 -29 -14 -45 -8 -16 -20 -51 -26 -79 -6 -27 -15
-62 -20 -77 -5 -16 -4 -28 1 -28 20 0 7 -37 -21 -60 -24 -20 -29 -30 -25 -51
4 -17 0 -30 -10 -39 -8 -7 -15 -17 -15 -23 0 -5 -7 -15 -16 -22 -9 -6 -27 -36
-39 -66 -19 -47 -25 -54 -47 -51 -22 2 -25 -1 -21 -22 4 -20 0 -24 -26 -28
-17 -2 -31 -1 -31 4 0 4 -4 8 -10 8 -5 0 -10 -7 -10 -15 0 -8 5 -15 10 -15 18
0 11 -19 -12 -31 -18 -10 -24 -8 -38 11 -12 16 -24 21 -39 17 -16 -4 -22 0
-27 19 -4 14 -16 27 -29 30 -18 5 -23 12 -20 32 2 15 8 26 15 24 8 -2 11 6 8
22 -3 14 0 27 6 29 6 3 12 36 14 77 1 40 6 78 10 84 3 6 5 23 4 37 -2 14 7 44
18 65 12 21 24 50 27 63 2 14 5 27 7 28 1 1 28 -5 60 -13 32 -8 61 -13 63 -10
7 6 -82 46 -102 46 -21 0 -28 19 -10 27 10 3 21 0 25 -7 4 -7 13 -9 19 -6 15
10 14 26 -3 26 -7 0 -16 8 -20 18 -3 9 -9 23 -12 30 -3 7 0 11 8 10 8 -2 13 6
13 22 0 21 5 25 35 27 96 7 118 13 113 33 -3 11 -14 20 -25 20 -15 0 -18 5
-13 20 5 16 -1 23 -29 37 -33 15 -51 53 -26 53 5 0 32 14 58 30 27 17 55 30
63 30 23 1 71 49 65 65 -9 24 14 63 34 58 10 -3 20 2 24 14 24 64 47 79 66 43z
m-2270 0 c0 -5 -5 -10 -11 -10 -5 0 -7 5 -4 10 3 6 8 10 11 10 2 0 4 -4 4 -10z
m-100 -30 c0 -5 -2 -10 -4 -10 -3 0 -8 5 -11 10 -3 6 -1 10 4 10 6 0 11 -4 11
-10z m-30 -17 c0 -16 -35 -43 -57 -43 l-24 0 28 25 c27 23 53 32 53 18z m2245
-13 c-3 -5 -12 -10 -18 -10 -7 0 -6 4 3 10 19 12 23 12 15 0z m-3535 -10 c0
-5 -5 -10 -11 -10 -5 0 -7 5 -4 10 3 6 8 10 11 10 2 0 4 -4 4 -10z m3482 -22
c-15 -15 -26 -4 -18 18 5 13 9 15 18 6 9 -9 9 -15 0 -24z m1048 8 c0 -3 -4 -8
-10 -11 -5 -3 -10 -1 -10 4 0 6 5 11 10 11 6 0 10 -2 10 -4z m-763 -43 c-3
-10 -5 -4 -5 12 0 17 2 24 5 18 2 -7 2 -21 0 -30z m-2489 -31 c-3 -14 -6 -14
-16 6 -7 12 -10 27 -6 33 9 15 27 -16 22 -39z m3459 -7 c10 17 11 17 22 -3 13
-24 -3 -72 -25 -72 -7 0 -19 -2 -27 -6 -20 -7 -41 47 -32 87 l7 32 23 -28 c20
-27 23 -27 32 -10z m-4814 2 c3 -8 -1 -14 -8 -14 -7 0 -11 6 -8 14 3 7 6 13 8
13 2 0 5 -6 8 -13z m711 -153 c-23 -106 -44 -157 -58 -143 -3 2 1 25 9 49 8
25 26 85 40 134 15 48 28 86 31 83 3 -2 -7 -58 -22 -123z m3921 81 c18 -47 15
-75 -9 -75 -16 0 -26 30 -26 83 0 50 15 47 35 -8z m-3979 -36 c-9 -19 -15 -29
-16 -22 0 15 22 64 27 60 2 -2 -3 -19 -11 -38z m264 -24 c0 -8 -4 -15 -10 -15
-5 0 -10 7 -10 15 0 8 5 15 10 15 6 0 10 -7 10 -15z m-965 -15 c3 -5 -1 -10
-10 -10 -9 0 -13 5 -10 10 3 6 8 10 10 10 2 0 7 -4 10 -10z m1477 -40 c95 -6
177 -16 182 -21 11 -10 23 -10 -407 -12 -283 -2 -317 0 -317 14 0 9 2 18 4 20
11 10 381 9 538 -1z m266 -93 c180 -23 242 -40 242 -66 0 -4 -5 -33 -11 -64
-15 -75 16 -74 -449 -16 -52 6 -212 13 -355 15 l-260 3 2 66 c2 108 -31 99
326 92 242 -5 355 -12 505 -30z m-891 -42 c-1 -71 -19 -84 -25 -19 -2 21 -5
41 -7 42 -3 3 26 42 32 42 1 0 1 -29 0 -65z m-57 -11 c0 -8 -5 -12 -10 -9 -6
4 -8 11 -5 16 9 14 15 11 15 -7z m700 -114 c175 -18 415 -52 438 -61 13 -5 20
-14 17 -19 -9 -14 -85 -12 -200 5 -212 33 -375 45 -607 45 l-238 0 0 23 0 22
247 -2 c137 -2 291 -7 343 -13z m-630 1 c0 -6 -4 -13 -10 -16 -5 -3 -10 1 -10
9 0 9 5 16 10 16 6 0 10 -4 10 -9z m1244 1 c6 -10 -31 -59 -39 -51 -7 8 15 59
26 59 4 0 10 -4 13 -8z m76 -52 c0 -11 -7 -20 -15 -20 -17 0 -18 2 -9 24 9 23
24 20 24 -4z m-1860 -35 c14 -19 14 -19 -2 -6 -10 7 -18 18 -18 24 0 6 1 8 3
6 1 -2 9 -13 17 -24z m500 -11 c0 -8 -4 -12 -10 -9 -5 3 -10 10 -10 16 0 5 5
9 10 9 6 0 10 -7 10 -16z m656 -40 c46 -18 57 -35 75 -121 11 -55 10 -61 -15
-114 -30 -62 -106 -129 -147 -129 -83 0 -207 87 -210 147 -5 86 9 128 58 177
64 66 139 78 239 40z m3149 -54 c3 -5 1 -10 -4 -10 -6 0 -11 5 -11 10 0 6 2
10 4 10 3 0 8 -4 11 -10z m215 -9 c-12 -23 -30 -36 -30 -22 0 21 13 41 26 41
11 0 12 -4 4 -19z m-4006 -76 c12 -37 23 -55 34 -55 12 0 13 -3 4 -12 -16 -16
-15 -37 3 -72 8 -15 15 -37 15 -47 0 -11 9 -28 20 -39 20 -20 28 -70 10 -70
-5 0 -7 7 -4 15 4 8 2 15 -2 15 -5 0 -7 -70 -6 -155 3 -100 0 -155 -6 -155 -7
0 -12 69 -15 183 l-4 182 -45 119 c-25 65 -43 127 -41 137 8 28 18 15 37 -46z
m4087 42 c-13 -13 -26 -3 -16 12 3 6 11 8 17 5 6 -4 6 -10 -1 -17z m-1606 -7
c3 -5 1 -10 -4 -10 -6 0 -11 5 -11 10 0 6 2 10 4 10 3 0 8 -4 11 -10z m1435
-109 c0 -5 -7 -14 -15 -21 -12 -10 -15 -10 -15 2 0 8 3 18 7 21 9 10 23 9 23
-2z m-1150 -76 c0 -8 -4 -15 -10 -15 -5 0 -10 7 -10 15 0 8 5 15 10 15 6 0 10
-7 10 -15z m256 6 c-3 -5 1 -25 9 -45 18 -42 18 -46 4 -46 -13 0 -42 69 -35
86 3 8 10 14 16 14 6 0 9 -4 6 -9z m1084 -16 c0 -8 -4 -15 -9 -15 -13 0 -22
16 -14 24 11 11 23 6 23 -9z m-3876 -94 c0 -38 -5 -75 -11 -83 -6 -7 -13 -31
-16 -54 -2 -23 -12 -56 -20 -75 -9 -19 -18 -43 -21 -54 -8 -33 4 177 13 223 8
41 21 68 21 44 0 -7 5 -12 10 -12 6 0 10 15 10 33 0 27 6 47 14 47 1 0 1 -31
0 -69z m801 27 c-1 -18 -14 -58 -27 -88 -14 -30 -35 -93 -47 -140 -33 -121
-42 -145 -35 -90 7 53 51 217 65 242 5 10 9 26 9 37 0 28 18 71 29 71 5 0 8
-15 6 -32z m2735 -3 c0 -17 -69 -96 -70 -79 0 12 57 94 65 94 3 0 5 -7 5 -15z
m49 -173 c1 -57 -2 -69 -19 -80 -26 -16 -43 -6 -35 19 4 11 2 19 -4 19 -6 0
-11 5 -11 11 0 7 10 9 26 5 23 -6 25 -4 19 11 -15 36 -17 63 -5 78 20 25 28 9
29 -63z m-3432 -214 c-3 -8 -6 -5 -6 6 -1 11 2 17 5 13 3 -3 4 -12 1 -19z
m218 2 c3 -5 1 -10 -4 -10 -6 0 -11 5 -11 10 0 6 2 10 4 10 3 0 8 -4 11 -10z
m300 -67 c-7 -35 -8 -36 -16 -15 -6 15 -5 31 2 44 16 29 23 15 14 -29z m-710
20 c3 -10 9 -48 12 -84 5 -61 4 -66 -16 -72 -11 -3 -23 -2 -25 2 -7 11 6 171
14 171 4 0 11 -8 15 -17z m-95 -22 c0 -12 -20 -25 -27 -18 -7 7 6 27 18 27 5
0 9 -4 9 -9z m781 -92 c-5 -24 -12 -55 -15 -69 -2 -14 -10 -50 -18 -80 l-13
-55 -3 63 c-2 35 1 69 6 75 5 7 15 30 21 52 20 66 21 68 27 63 2 -3 0 -25 -5
-49z m-1843 -281 c-3 -7 -20 -13 -38 -13 -18 0 -35 6 -37 13 -3 8 8 12 37 12
29 0 40 -4 38 -12z"/>
<path d="M2992 4144 c4 -20 34 -41 45 -31 10 11 -11 41 -31 45 -12 3 -17 -2
-14 -14z"/>
<path d="M3250 4120 c0 -5 7 -10 16 -10 8 0 12 5 9 10 -3 6 -10 10 -16 10 -5
0 -9 -4 -9 -10z"/>
<path d="M3420 4089 c0 -5 5 -7 10 -4 6 3 10 8 10 11 0 2 -4 4 -10 4 -5 0 -10
-5 -10 -11z"/>
<path d="M3450 4080 c0 -5 5 -10 10 -10 6 0 10 5 10 10 0 6 -4 10 -10 10 -5 0
-10 -4 -10 -10z"/>
<path d="M3625 4040 c-3 -5 -1 -10 4 -10 6 0 11 5 11 10 0 6 -2 10 -4 10 -3 0
-8 -4 -11 -10z"/>
<path d="M2978 3825 c-8 -9 3 -45 13 -45 5 0 9 6 9 13 0 17 -15 39 -22 32z"/>
<path d="M3310 3875 c0 -9 6 -12 15 -9 8 4 12 10 9 15 -8 14 -24 10 -24 -6z"/>
<path d="M3376 3328 c1 -20 11 -38 30 -54 36 -31 41 -18 15 34 -26 51 -46 60
-45 20z"/>
<path d="M1388 3273 c6 -2 18 -2 25 0 6 3 1 5 -13 5 -14 0 -19 -2 -12 -5z"/>
<path d="M2095 3280 c-3 -5 -1 -10 4 -10 6 0 11 5 11 10 0 6 -2 10 -4 10 -3 0
-8 -4 -11 -10z"/>
<path d="M5415 2133 c8 -40 0 -41 -38 -5 l-29 27 7 -35 c7 -34 49 -90 68 -90
4 0 5 9 2 20 -9 29 10 24 38 -10 32 -38 37 -38 37 2 l0 32 28 -27 c35 -34 42
-34 42 1 l1 27 24 -27 c31 -36 39 -35 32 1 -10 47 -57 94 -57 56 0 -23 -16
-18 -43 14 -27 33 -40 31 -31 -5 9 -33 -4 -30 -49 14 l-39 37 7 -32z"/>
<path d="M2014 1291 c-23 -11 -46 -25 -50 -33 -5 -7 -18 -18 -29 -24 -22 -12
-38 -63 -33 -103 3 -21 7 -16 23 32 20 61 35 80 74 92 l24 7 -21 -34 c-11 -18
-25 -53 -31 -77 -9 -40 -7 -45 16 -67 26 -24 88 -34 95 -15 2 4 13 12 26 15
19 6 22 4 22 -17 0 -30 -32 -52 -79 -55 -51 -4 -52 -12 -2 -12 91 0 171 71
171 151 0 58 -9 89 -26 89 -8 0 -14 8 -14 19 0 12 -14 23 -43 35 -54 20 -72
20 -123 -3z m121 -11 c3 -5 -1 -10 -9 -10 -8 0 -18 5 -21 10 -3 6 1 10 9 10 8
0 18 -4 21 -10z m25 -24 c0 -3 -4 -8 -10 -11 -5 -3 -10 -1 -10 4 0 6 5 11 10
11 6 0 10 -2 10 -4z"/>
<path d="M1701 394 c0 -11 3 -14 6 -6 3 7 2 16 -1 19 -3 4 -6 -2 -5 -13z"/>
<path d="M3057 6363 c-13 -88 22 -158 60 -120 12 12 19 38 21 87 l4 70 -40 0
c-38 0 -40 -1 -45 -37z"/>
<path d="M3330 6392 c0 -14 23 -32 40 -32 9 0 25 9 35 20 18 20 17 20 -28 20
-26 0 -47 -4 -47 -8z"/>
</g>
</svg>
